<svg width="24" height="24" viewBox="0 0 24 24" fill="none" xmlns="http://www.w3.org/2000/svg">
<path d="M11.827 13.0537L13.9 15.127C14.0385 15.2653 14.2125 15.3362 14.422 15.3395C14.6317 15.3427 14.8089 15.2718 14.9538 15.127C15.0986 14.982 15.171 14.8063 15.171 14.6C15.171 14.3937 15.0986 14.218 14.9538 14.073L12.8808 12L14.9538 9.927C15.0923 9.7885 15.1631 9.61442 15.1663 9.40475C15.1694 9.19525 15.0986 9.018 14.9538 8.873C14.8089 8.72817 14.6334 8.65575 14.427 8.65575C14.2205 8.65575 14.0449 8.72817 13.9 8.873L11.827 10.9462L9.75378 8.873C9.61544 8.73467 9.44144 8.66383 9.23178 8.6605C9.02211 8.65733 8.84486 8.72817 8.70003 8.873C8.55519 9.018 8.48278 9.19367 8.48278 9.4C8.48278 9.60633 8.55519 9.782 8.70003 9.927L10.773 12L8.70003 14.073C8.56153 14.2115 8.49069 14.3856 8.48753 14.5953C8.48436 14.8048 8.55519 14.982 8.70003 15.127C8.84486 15.2718 9.02053 15.3442 9.22703 15.3442C9.43336 15.3442 9.60894 15.2718 9.75378 15.127L11.827 13.0537ZM7.08653 19.5C6.80203 19.5 6.53086 19.4372 6.27303 19.3115C6.01536 19.1858 5.80453 19.0108 5.64053 18.7865L1.32303 13.0942C1.07569 12.7699 0.952026 12.4052 0.952026 12C0.952026 11.5948 1.07569 11.2301 1.32303 10.9057L5.64053 5.2135C5.80453 4.98917 6.01536 4.81417 6.27303 4.6885C6.53086 4.56283 6.80203 4.5 7.08653 4.5H17.6923C18.1909 4.5 18.6169 4.67658 18.9703 5.02975C19.3234 5.38308 19.5 5.80908 19.5 6.30775V17.6923C19.5 18.1909 19.3234 18.6169 18.9703 18.9703C18.6169 19.3234 18.1909 19.5 17.6923 19.5H7.08653ZM7.08653 18H17.6923C17.7821 18 17.8559 17.9712 17.9135 17.9135C17.9712 17.8558 18 17.7821 18 17.6923V6.30775C18 6.21792 17.9712 6.14417 17.9135 6.0865C17.8559 6.02883 17.7821 6 17.6923 6H7.08653C7.03519 6 6.98869 6.00958 6.94703 6.02875C6.90536 6.04808 6.86853 6.077 6.83653 6.1155L2.51928 11.8078C2.47444 11.8654 2.45203 11.9295 2.45203 12C2.45203 12.0705 2.47444 12.1346 2.51928 12.1923L6.83653 17.8845C6.86853 17.923 6.90536 17.9519 6.94703 17.9712C6.98869 17.9904 7.03519 18 7.08653 18Z" fill="black" style="fill:black;fill-opacity:1;"/>
</svg>
